<?xml version="1.0" encoding="UTF-8" standalone="no"?>
<!-- Created with Inkscape (http://www.inkscape.org/) -->

<svg
   xmlns:dc="http://purl.org/dc/elements/1.1/"
   xmlns:cc="http://creativecommons.org/ns#"
   xmlns:rdf="http://www.w3.org/1999/02/22-rdf-syntax-ns#"
   xmlns:svg="http://www.w3.org/2000/svg"
   xmlns="http://www.w3.org/2000/svg"
   xmlns:xlink="http://www.w3.org/1999/xlink"
   xmlns:sodipodi="http://sodipodi.sourceforge.net/DTD/sodipodi-0.dtd"
   xmlns:inkscape="http://www.inkscape.org/namespaces/inkscape"
   version="1.1"
   width="2000"
   height="1900"
   id="svg2"
   inkscape:version="0.91 r13725"
   sodipodi:docname="logo_web_con_texto.svg"
   inkscape:export-filename="C:\Users\joseluis\Downloads\logo_web_con_texto.png"
   inkscape:export-xdpi="90"
   inkscape:export-ydpi="90">
  <sodipodi:namedview
     pagecolor="#ffffff"
     bordercolor="#666666"
     borderopacity="1"
     objecttolerance="10"
     gridtolerance="10"
     guidetolerance="10"
     inkscape:pageopacity="0"
     inkscape:pageshadow="2"
     inkscape:window-width="1349"
     inkscape:window-height="854"
     id="namedview111"
     showgrid="false"
     inkscape:zoom="0.54"
     inkscape:cx="695.65206"
     inkscape:cy="1583.4601"
     inkscape:window-x="480"
     inkscape:window-y="117"
     inkscape:window-maximized="0"
     inkscape:current-layer="svg2" />
  <metadata
     id="metadata8">
    <rdf:RDF>
      <cc:Work
         rdf:about="">
        <dc:format>image/svg+xml</dc:format>
        <dc:type
           rdf:resource="http://purl.org/dc/dcmitype/StillImage" />
        <dc:title></dc:title>
      </cc:Work>
    </rdf:RDF>
  </metadata>
  <defs
     id="defs6">
    <linearGradient
       inkscape:collect="always"
       id="linearGradient4192">
      <stop
         style="stop-color:#000000;stop-opacity:1;"
         offset="0"
         id="stop4194" />
      <stop
         style="stop-color:#000000;stop-opacity:0;"
         offset="1"
         id="stop4196" />
    </linearGradient>
    <linearGradient
       inkscape:collect="always"
       xlink:href="#linearGradient4192"
       id="linearGradient4198"
       x1="614.25098"
       y1="281.65417"
       x2="1256.7754"
       y2="281.65417"
       gradientUnits="userSpaceOnUse" />
    <linearGradient
       inkscape:collect="always"
       xlink:href="#linearGradient4192"
       id="linearGradient4200"
       gradientUnits="userSpaceOnUse"
       x1="614.25098"
       y1="281.65417"
       x2="1256.7754"
       y2="281.65417" />
    <linearGradient
       inkscape:collect="always"
       xlink:href="#linearGradient4192"
       id="linearGradient4202"
       gradientUnits="userSpaceOnUse"
       x1="614.25098"
       y1="281.65417"
       x2="1256.7754"
       y2="281.65417" />
  </defs>
  <g
     transform="matrix(2.9628656,0,0,2.6483921,166.77251,85.985761)"
     id="g3377">
    <g
       transform="matrix(0.3145834,0,0,0.33850152,-22.275327,-26.788288)"
       id="g5162">
      <path
         d="m -151.375,413.34375 0,0.8125 -0.40625,0 -0.78125,0.40625 -0.40625,0 0,0.8125 -0.40625,0 0,0.40625 -0.40625,0 -0.40625,0 -0.40625,0 -0.40625,0.40625 -0.40625,0 -0.40625,0 0,0.375 -0.40625,0 -0.40625,0 -0.40625,0.40625 0,0.40625 -0.40625,0 0,-0.40625 -0.40625,0 0,0.40625 0.40625,0.40625 -0.40625,0 -0.375,0 -0.40625,0 0,0.40625 0,0.40625 0.40625,0 0,0.40625 0.375,0 -0.5,0.28125 L -158.625,419 l -0.40625,0 -0.40625,-0.40625 -0.40625,-0.40625 -0.8125,0.40625 0.40625,0.8125 0,0.40625 0.40625,0 0,0.40625 0.40625,0 0,0.40625 0,0.40625 -0.40625,0 0,-0.40625 -0.40625,0 -0.40625,0.40625 0,0.40625 -0.40625,-0.40625 0,0.40625 -0.40625,-0.40625 -0.40625,0 -0.40625,0 -0.40625,-0.40625 0.40625,0 0.40625,-0.40625 0.40625,0 0.40625,0.40625 0,-0.40625 0,-0.40625 -0.8125,0 0,-0.40625 0.40625,0 0,-0.40625 0.40625,0 0,-0.40625 0,-0.40625 0.40625,0 0,-0.40625 -0.40625,0 0,-0.40625 0.40625,0.40625 0.40625,0 0.40625,0.40625 0,-0.40625 0,-0.40625 0,-0.40625 -0.40625,0 -0.40625,-0.40625 0,-0.375 0.40625,0 0,-0.40625 0,-0.40625 0,-0.40625 0,-0.40625 0.40625,0 -0.40625,-0.8125 -0.40625,0.40625 -0.8125,0 -0.40625,0 -0.40625,-0.40625 0,0.40625 -0.40625,0.40625 -0.40625,0.40625 0.40625,0.40625 -0.40625,0 0,0.40625 -0.40625,0 -0.40625,0 -0.78125,0 0.40625,0.40625 -0.40625,0.375 -0.40625,0.40625 -0.8125,0 0,0.40625 -0.8125,0.40625 -0.40625,0 -0.40625,0 -0.40625,-0.40625 -0.40625,0 -0.40625,0 -0.40625,0 -0.40625,0 -0.375,0 0,0.40625 -0.40625,0 0,0.40625 0,0.40625 L -170.75,419 l 0.40625,0 0,0.40625 L -170.75,419 l 0,0.40625 0,0.40625 -0.40625,0 0.40625,0.40625 -0.40625,0.40625 0.40625,0.40625 0,-0.40625 0.40625,0.40625 0.40625,-0.40625 0,0.8125 -0.8125,0 0,0.40625 -0.40625,0 -0.40625,0 0,-0.40625 0,-0.40625 0,-0.40625 -0.40625,0 0,0.40625 -0.40625,0 0,0.40625 0,0.40625 -0.40625,-0.40625 0,0.40625 -0.40625,0 -0.40625,0 0,0.40625 -0.40625,0 -0.40625,0.375 -0.40625,0 0,0.40625 0,0.40625 -0.40625,0 -0.78125,0.40625 -0.40625,-0.40625 0,-0.40625 -0.40625,0 0,0.40625 -0.40625,0 0,0.40625 0.40625,0 -0.40625,0.40625 -0.40625,0 0,0.40625 -0.40625,0 0,0.40625 -0.40625,0 0,0.40625 -0.40625,0.40625 -0.40625,0.40625 -0.40625,0.40625 -0.40625,0 -0.40625,0.40625 -0.8125,0.40625 -0.375,-0.40625 -0.8125,0 -0.40625,-0.40625 0,-0.40625 -0.40625,0 -0.40625,0 0,0.40625 0,0.40625 0.40625,0 0,0.40625 0,0.40625 0.40625,0 0.40625,0.40625 0,0.375 -0.40625,0.40625 -0.40625,0 -0.40625,0 -0.40625,0 -0.40625,0.8125 0.40625,0 0,0.40625 0,0.40625 0.40625,0 -0.40625,0.8125 0,0.40625 -0.40625,0.40625 -0.40625,0 0,0.40625 -0.40625,0 0.40625,0.40625 -0.40625,0 0.40625,0.40625 0.40625,-0.40625 0.40625,0 0.40625,-0.40625 0,0.40625 0.40625,0 0.40625,0 0,0.40625 0.40625,0 0.40625,0 0,-0.40625 0.78125,0 0,-0.40625 0.40625,0 0,-0.40625 0,-0.40625 0.40625,0 0,-0.40625 0.40625,0 0,0.40625 -0.40625,0.40625 0,0.40625 0.40625,0 0.40625,-0.40625 0,0.40625 0.40625,0 0.40625,0 0,-0.40625 0.40625,0 0,0.40625 0.40625,0 0.40625,0 0,-0.40625 -0.40625,0 0,-0.40625 0.40625,0.40625 0.40625,-0.40625 0.40625,-0.40625 0.40625,0 0,-0.40625 0.40625,-0.40625 -0.40625,-0.40625 0.40625,0 0.40625,0 0,0.40625 -0.40625,0.40625 0,0.40625 0,0.40625 -0.40625,0.40625 0,0.40625 -0.40625,0.40625 -0.40625,0 0,0.40625 -0.40625,0 0,0.40625 -0.40625,0 -0.40625,0 -0.40625,0 -0.40625,0 -0.40625,0 -0.40625,-0.40625 0,0.40625 -0.40625,-0.40625 -0.40625,0 -0.40625,0 0,0.40625 -0.375,0 0,-0.40625 -0.40625,0.40625 0,-0.40625 -0.40625,0.40625 -0.8125,0 -0.40625,0 0,0.375 0.40625,0 0,0.40625 -0.40625,0 -0.40625,0 0.40625,0.40625 0.8125,0 0.40625,0 0.40625,0 0,0.40625 0.78125,0.40625 0.40625,0.40625 0.40625,0.40625 0.40625,0 -0.40625,-0.40625 0.40625,-0.40625 0.8125,0.40625 0.40625,0.40625 0.40625,0 0,-0.40625 0.40625,0 0.40625,0 0,0.40625 0.40625,0 0.40625,0 0,0.40625 -0.8125,0 -0.40625,0 -0.40625,0.40625 -0.40625,0 0,0.40625 -0.40625,0.40625 0,0.40625 -0.40625,0 0.40625,0.40625 0,0.40625 0,0.40625 0,0.375 0.40625,0 0,0.40625 -0.40625,0 -0.40625,0.40625 0.40625,0.40625 0.40625,0.8125 -0.40625,-0.40625 0.40625,0.8125 -0.40625,0 -0.40625,-0.40625 -0.40625,-0.40625 -0.40625,-0.40625 -0.40625,-0.40625 0,0.40625 -0.40625,-0.8125 0.40625,0 0,-0.40625 -0.40625,-0.375 -0.375,-0.40625 0,-0.40625 0,-0.40625 -0.40625,0 -0.40625,0 -0.40625,0 -0.40625,0 0,-0.40625 0,-0.40625 -0.40625,-0.40625 -0.40625,0 -0.40625,0 -0.40625,0 -0.40625,0 -0.40625,0.40625 0.40625,0.40625 -0.40625,0 -0.40625,0.40625 0.40625,0 0.40625,0 0,0.8125 -0.40625,0.40625 -0.40625,0.375 0.40625,0.40625 -0.40625,0 0.40625,0.40625 -0.40625,0 -0.40625,0 0,0.40625 -0.40625,0 0,-0.40625 -0.375,0.40625 -0.40625,0 0,-0.40625 0,-0.40625 -0.40625,-0.40625 0,-0.375 -0.40625,0 0,-0.40625 0.40625,0 0.40625,0 -0.40625,-0.40625 0,-0.40625 0.40625,-0.40625 -0.8125,-0.40625 0.40625,0.40625 -0.40625,0 -0.40625,0 0,0.40625 0.40625,0 0,0.40625 -0.40625,0.40625 -0.40625,-0.40625 0,-0.40625 -0.40625,0 -0.40625,0 0,-0.40625 -0.40625,0.40625 0,0.40625 -0.40625,0 -0.40625,0 0,0.40625 0,0.40625 -0.40625,0 -0.40625,0 0,0.375 -0.40625,0 -0.40625,0 -0.375,0.8125 -0.40625,0.40625 0,0.40625 -0.40625,0 -0.40625,0 0,0.40625 -1.21875,0.40625 -0.8125,0 -0.40625,0 0,-0.40625 -0.8125,0 -0.40625,0 0,-0.40625 -0.40625,0.40625 -0.375,-0.40625 0,0.40625 -0.40625,0 -0.40625,0 -0.8125,0.40625 -0.8125,0.40625 -0.8125,0 -1.21875,0.8125 -0.8125,0 -0.40625,-0.40625 0,-0.40625 -0.375,0.40625 -0.8125,0 -0.40625,-0.40625 -0.40625,-0.40625 -0.40625,0 -0.40625,0 -0.40625,0 0,-0.40625 -0.40625,-0.40625 -0.40625,0 0,-0.40625 -0.40625,-0.40625 -0.40625,-0.40625 -0.40625,0 0,-0.78125 0,-0.40625 -0.40625,0 0,0.40625 -0.375,0 0,0.78125 0,0.40625 0,0.40625 -0.40625,-0.40625 -0.40625,0.40625 0,-0.40625 -0.40625,0 0,0.40625 -0.40625,0 -0.40625,-0.40625 -0.40625,0 -0.40625,0 -0.40625,0 0,0.40625 0,0.40625 0,0.40625 0,0.40625 -0.40625,0 -0.40625,0 -0.40625,0.40625 0.40625,0.40625 -0.40625,0 -0.40625,-0.40625 -0.40625,-0.40625 -0.375,0 -0.40625,0.40625 -0.40625,0 -0.8125,0.40625 0,0.40625 0.40625,0.40625 0,0.40625 0.40625,0 0.40625,0 0.40625,0 0,0.40625 0,0.40625 0,0.78125 0.375,-0.40625 0,0.40625 0.40625,0.40625 -0.40625,0.40625 -0.375,0 -0.40625,0 -0.40625,0 -0.40625,0 -0.40625,0 0,0.40625 -0.40625,0 0,0.40625 -0.40625,-0.40625 -0.40625,0 0.40625,-0.40625 -0.40625,-0.40625 -0.40625,-0.40625 0,0.40625 0.40625,0.40625 -0.40625,0 -0.40625,0.40625 0,0.40625 -0.40625,0 0,-0.40625 -0.40625,0.40625 0,0.40625 0,0.8125 -1.21875,0.40625 -0.375,0 -0.40625,0 0,0.40625 -0.40625,0 0,-0.40625 -0.40625,0 0,-0.40625 -0.40625,0 -0.40625,0.40625 -0.40625,-0.40625 0,-0.40625 -0.40625,0 -0.40625,-0.40625 0,0.40625 -0.40625,0 -0.40625,0 0,0.40625 -0.40625,0.40625 -0.40625,0 0,-0.40625 -0.40625,0 -0.375,0.40625 0,0.8125 -0.40625,0 0,0.40625 -0.40625,0 0,0.40625 -0.40625,0 -0.40625,0 0,0.40625 0.40625,0.375 0,0.8125 -0.40625,0 0.40625,0.40625 0.40625,0.40625 0,-0.40625 0.40625,0 0,-0.40625 0.40625,0 0,-0.40625 0.375,0 0,-0.40625 0.40625,-0.375 0,0.375 -0.40625,0.8125 0,0.40625 0.40625,0 0,0.40625 -0.40625,0.8125 0,0.40625 -0.375,0 -0.40625,0 0,0.8125 -0.40625,0 -0.40625,0 0,-0.40625 0,-0.40625 -0.40625,0 -0.40625,0 0,-0.40625 -0.40625,-0.40625 0,0.40625 0,0.40625 0,0.40625 0,0.40625 -0.40625,0 -0.40625,-0.40625 -0.40625,0.40625 0,-0.40625 -0.40625,0 0,0.40625 0,0.40625 0,0.40625 0,0.40625 -0.40625,0.8125 -0.40625,0.375 -0.40625,0 0,0.40625 -0.40625,0 0,-0.40625 -0.375,0.40625 0.375,0.40625 0,1.625 0,0.40625 0.40625,0 0,-0.40625 0.40625,0.40625 0,0.40625 0,0.40625 0,0.40625 0,0.40625 -0.40625,0.40625 0.40625,0.40625 -0.40625,0 -0.40625,0.78125 -0.375,0.40625 0,0.8125 -0.40625,0 0,0.40625 -0.40625,0 0,0.40625 -0.40625,0.40625 0.40625,0 0,0.40625 0.40625,0 0.40625,0.40625 0,0.40625 -0.40625,0.8125 0,0.40625 0.40625,0 0,0.78125 0.375,-0.375 0,-0.8125 0.40625,-0.40625 0,-0.40625 -0.40625,-0.40625 0.40625,-0.40625 0.8125,-0.40625 0.40625,0 0.40625,-0.40625 -0.40625,0 0.40625,-0.40625 0.40625,0 0.40625,0.40625 -0.40625,0.40625 0.40625,0 0.40625,0 -0.40625,0.8125 0.40625,0 0.40625,0 0.40625,0 0.40625,0 -0.40625,-0.40625 0.40625,-0.40625 -0.40625,-0.40625 0,-0.40625 0,-0.40625 0,-0.40625 0,-0.40625 0.40625,0.8125 0.40625,0.40625 0,0.40625 0,0.40625 0,0.40625 0.40625,0 0,0.40625 0,0.40625 0.40625,0 0,0.40625 0.375,-0.40625 0,0.40625 0.40625,0 0.40625,0 0,0.40625 -0.40625,0.40625 -0.40625,0 0,0.40625 0.40625,0 -0.40625,0.375 -0.375,0.40625 0.375,0 -0.375,0.40625 0,0.40625 0.375,0 -0.375,0.40625 0.375,0 0,0.40625 0,0.40625 0.40625,0 0,0.40625 0.40625,-0.40625 0,0.40625 0.40625,0 0.40625,0.40625 0,0.40625 0,0.8125 0,0.40625 -0.40625,0.40625 -0.40625,0 -0.40625,0.40625 -0.40625,0 0,-0.40625 -0.375,0.40625 -0.40625,0 0,0.375 0.40625,0 0,0.40625 0.375,0 0.40625,0.8125 0,0.40625 0,0.40625 0.40625,0.40625 0,0.40625 0.40625,0 0.40625,0 0.40625,0.8125 0,0.40625 0.40625,0 0.40625,0 0,-0.40625 -0.40625,-0.40625 0.40625,-0.40625 0.40625,0 0.40625,0 0.40625,-0.40625 0,-0.40625 0,-0.40625 -0.40625,0 0,-0.40625 -0.40625,0 0.40625,-0.40625 0,0.40625 0.40625,-0.40625 0.40625,0 0.40625,0 0.40625,0 0,-0.40625 0.375,0 0,-0.40625 0.40625,0.40625 0,0.40625 0,0.40625 0.40625,0.40625 0.40625,0 0.40625,0 0.40625,0 0,-0.40625 0.40625,-0.40625 0,0.40625 0.40625,0 0,0.40625 0,0.40625 0.40625,-0.40625 0.40625,0 0,-0.40625 0.40625,-0.40625 -0.40625,0 0.40625,-0.40625 0.40625,0 0.40625,0 0,0.40625 0.40625,0 0.40625,-0.40625 0.375,-1.1875 0.40625,-0.40625 0,0.40625 0.40625,0.40625 -0.40625,0 0,0.375 -0.40625,0.40625 0,0.40625 0.40625,0 0,0.40625 0,0.40625 -0.40625,0 -0.375,0 0,-0.40625 -0.40625,0 -0.8125,0.40625 0,0.40625 -0.40625,0 0,0.40625 0,0.40625 -0.40625,0.40625 -0.40625,0 0,0.40625 -0.40625,0.40625 -0.40625,0.40625 -0.40625,0 0,-0.40625 -0.40625,0 -0.40625,0.40625 0,0.40625 -0.40625,0.40625 -0.40625,0 0,0.375 -0.40625,0.8125 -0.375,0 -0.40625,0.40625 0,0.40625 -0.40625,1.21875 0,0.40625 -0.40625,0 0,0.40625 0,0.40625 0,0.40625 0,0.40625 0,0.40625 -0.40625,1.1875 -0.40625,0 -0.40625,0.40625 0,0.40625 0,0.40625 -0.40625,0.40625 -0.40625,0 -0.40625,0.40625 0.40625,0 0,0.40625 -0.40625,0.40625 -0.40625,0 0,0.40625 0.40625,0.40625 0.40625,0 0,-0.40625 0.40625,0 0.40625,0 0.40625,0 0.40625,1.21875 0.40625,0.8125 0,0.375 -0.40625,0 0,0.40625 -0.40625,0 0.40625,0.40625 -0.40625,0 0,0.40625 0.40625,0.40625 0,-0.40625 0.40625,0.40625 0.40625,0 0,-0.40625 0.40625,0 0.40625,-0.40625 0.375,0 0.40625,-0.40625 0.40625,-0.40625 0,-0.375 -0.40625,-0.40625 0,-0.40625 0.40625,-0.40625 0.8125,0 0.40625,0 0,-0.40625 0,-0.40625 0.40625,-0.40625 0.40625,0 0,0.40625 0.40625,-0.40625 0,0.40625 0.40625,-0.40625 0.40625,0 0,-0.40625 -0.40625,-0.40625 -0.40625,-0.40625 0.40625,-0.40625 0.40625,-0.40625 0.40625,-0.40625 0.40625,-0.40625 0.40625,0 0,-0.40625 0,-0.375 0.40625,0 0.78125,0.375 0,0.40625 0,0.40625 -0.40625,0 0,0.40625 0,0.40625 0.40625,0 0.40625,0.40625 0.40625,0.40625 0,-0.40625 0,-0.40625 0,-0.40625 0,-0.40625 0.40625,0 0.40625,0 0.40625,0 0,-0.40625 -0.40625,-0.40625 -0.40625,0 -0.40625,-0.375 0.40625,0 L -214,486.5 l 0,-0.40625 0.40625,0 0,-0.8125 0,-0.40625 0.40625,0.40625 0,0.8125 0.40625,0 0.40625,0 0,0.40625 -0.40625,0.40625 0,0.40625 0.40625,0 0,0.375 0.40625,0.40625 0.40625,0 0.40625,-0.40625 0.40625,0 0.375,-0.375 0.40625,-0.40625 0,0.40625 0.40625,0 0.40625,0 0,-0.40625 0.40625,-0.40625 0.40625,-0.40625 0.40625,-0.40625 0,-0.40625 0.40625,0 -0.40625,0.8125 -0.40625,0.40625 -0.40625,0.8125 -0.40625,0.375 -0.40625,0 0,0.40625 -0.40625,0.40625 0,0.40625 -0.40625,0 0,0.40625 -0.375,0.40625 0.375,0.40625 0,0.40625 0,0.40625 -0.375,0 -0.40625,0 0,0.40625 -0.40625,0 -0.40625,0.40625 -0.40625,0.40625 -0.8125,0 -0.40625,0 0,0.40625 0,0.40625 -0.40625,0 0,0.40625 0,0.375 0.40625,0.40625 0,0.40625 0,0.40625 0,0.8125 0.40625,-0.40625 0.40625,0 -0.40625,0.40625 0,0.40625 0,0.40625 0,0.40625 0,0.40625 0.40625,0 0,0.40625 -0.40625,0 -0.40625,0 0,-0.40625 -0.40625,0.40625 0.40625,0.40625 -0.40625,0 0,0.40625 0,0.40625 0,0.375 0.40625,0 0,0.40625 0,0.40625 0,0.40625 -0.40625,-0.40625 0,-0.40625 -0.40625,0.40625 -0.40625,0 -0.40625,0 -0.40625,0.40625 -0.40625,0 -0.375,-0.8125 0.375,0 0,-0.40625 0.40625,-0.375 0.40625,-0.40625 -0.40625,-0.40625 0.40625,-0.40625 -0.40625,-0.40625 0,-0.40625 -0.40625,0.40625 0,-0.40625 -0.375,0.40625 0,-0.40625 -0.40625,0.40625 0.40625,0.40625 -0.40625,0 0,0.40625 -0.40625,-0.40625 0,0.40625 -0.8125,0.40625 -0.40625,0 -0.40625,-0.40625 -0.40625,0 -0.40625,0.40625 0.40625,0 0,0.40625 -0.40625,0.375 0.40625,0.8125 0.40625,0 0.40625,-0.40625 0,-0.40625 0.40625,0 0.40625,0.40625 0.40625,0 0.40625,0 0,0.40625 0.40625,0.40625 0,0.8125 0,0.40625 0,0.40625 -0.40625,0 0,0.40625 0,0.40625 0.40625,0 0.375,0 0.40625,0.8125 0,0.40625 0.40625,0 0,0.40625 0.40625,0 -0.40625,0.40625 0.40625,0 0.40625,-0.40625 0,0.40625 0.40625,-0.40625 0,-0.40625 0.40625,0 0,-0.40625 0.40625,0.40625 0.40625,0 0.40625,0 0.40625,0.40625 0.40625,0.40625 0.40625,-0.40625 0.40625,0 0,-0.40625 0.375,0 0.40625,-0.8125 0.40625,0 0.8125,-0.40625 0.40625,0 0.40625,-0.40625 0,-0.40625 0.40625,0 0.40625,-0.40625 0,0.40625 0.40625,0.40625 -0.40625,0.40625 0.40625,0 0.40625,0 0.40625,0 -0.8125,1.21875 -0.40625,-0.40625 0,0.40625 -0.40625,0 0.40625,0.40625 -0.40625,0 0,0.40625 -0.40625,-0.40625 -0.8125,0.40625 0,0.375 -0.40625,0 -0.40625,0.40625 -0.40625,0.8125 -0.40625,0 0,0.40625 0,0.40625 -0.375,0.40625 0,0.40625 -0.40625,0 0,0.40625 -0.40625,0 -0.40625,0.40625 -0.40625,0 -0.40625,0 -0.40625,-0.40625 0,-0.40625 -0.40625,0 -0.40625,0 -0.40625,0 0,-0.40625 -0.40625,0 -0.40625,0.40625 0.40625,0 0,0.40625 0.40625,0 -0.40625,0.40625 0.40625,0 0,0.40625 0,0.40625 0.40625,0 -0.40625,0.8125 0,0.40625 0,0.375 0,0.40625 0,0.40625 0,0.40625 -0.40625,-0.40625 0,-0.40625 -0.40625,-0.40625 -0.40625,-0.375 0,-0.40625 -0.40625,-0.40625 -0.375,0 0.375,0.40625 -0.375,0.78125 -0.40625,0.8125 0,0.40625 -0.40625,1.21875 0.40625,0 0,0.40625 0.40625,-0.40625 0,-0.40625 0.78125,0 0.40625,0.40625 0.40625,0.40625 0.40625,-0.40625 0,-0.40625 0.40625,0 0.40625,0.8125 0.40625,0 0.40625,0 0,-0.40625 0,-0.40625 0.40625,0 0.40625,0 0.40625,0.40625 0.40625,-0.40625 0,-0.40625 0.78125,0 0.40625,-0.40625 -0.40625,0 0.40625,-0.40625 0.40625,0 0.40625,0 0,0.40625 0.40625,0 0.40625,0 0,-0.40625 0.40625,0.40625 0.40625,-0.40625 0.40625,0 0,-0.40625 0.8125,0 0.40625,-0.40625 0,-0.375 0,-0.40625 -0.40625,0 0,-0.40625 0.40625,-0.40625 0.40625,0.40625 0,-0.40625 0.78125,0 0,-0.8125 -0.375,0 0,-0.40625 0.375,-0.40625 0.40625,-0.40625 0,0.40625 0.40625,0 0.40625,0 -0.40625,0.40625 0.40625,0.40625 -0.40625,0.40625 0.40625,0.40625 -0.40625,0 -0.40625,0.8125 0.40625,0.40625 0,0.375 0,0.40625 -0.40625,0 0,0.40625 0.40625,0 0,0.40625 -0.40625,-0.40625 -0.40625,0 0,0.40625 -0.375,-0.40625 -0.40625,0 -0.40625,0 -0.40625,0 0,0.40625 -0.40625,0 0,0.40625 -0.40625,0.8125 -0.40625,0 -0.40625,0 0,0.40625 -0.40625,0 0,-0.40625 -0.40625,0 0,0.40625 0,0.40625 0,0.40625 -0.40625,0 -0.40625,0 -0.40625,0 -0.40625,0.40625 0,0.40625 -0.375,0 -0.40625,0.40625 0,-0.40625 -0.40625,0.40625 -0.40625,0 0,-0.40625 -0.40625,0.40625 0,0.78125 -0.40625,0.40625 -0.40625,0.40625 -0.40625,0 0,0.40625 L -214,518 l 0,0.40625 -0.40625,0 -0.40625,0 0.40625,0.8125 -0.40625,0.8125 -0.40625,0.40625 -0.40625,0.40625 -0.40625,-0.40625 -0.375,0 0,0.40625 0.375,0.40625 0.40625,0 0.40625,0.40625 0.40625,0.40625 -0.40625,0.40625 0,0.40625 -0.40625,0 0.40625,0.375 -0.40625,0.40625 -0.40625,0 0,-0.40625 -0.375,-0.375 0,-0.40625 -0.40625,0 0,0.40625 -0.40625,0 -0.40625,0.375 -0.40625,0 -0.40625,0.40625 0,-0.40625 -0.8125,0 0,0.40625 0,0.40625 0.40625,0 0,1.21875 -0.40625,0.40625 0,0.40625 0,0.40625 0.40625,0.40625 0,0.8125 0,0.40625 0.40625,0.40625 -0.40625,0.40625 -0.40625,0.375 0.40625,0 0,0.40625 0,0.40625 0,0.40625 0,0.40625 0.40625,0 -0.40625,0.40625 0,0.40625 -0.40625,0 0,0.8125 0,0.8125 0,0.40625 0,0.40625 0,0.78125 0,0.40625 0,0.40625 0,0.8125 0,0.40625 0.40625,0.40625 -0.40625,0.40625 0.40625,0.40625 -0.40625,0 0,0.40625 0,0.40625 0.40625,0.8125 0.40625,0 0.8125,-0.40625 0.40625,-0.40625 0,-0.40625 0.40625,-0.40625 0.40625,-0.40625 2,-0.8125 0.8125,-0.40625 0.8125,-0.8125 0.40625,-0.40625 0.40625,-0.40625 -0.40625,-0.375 0.40625,-0.40625 0.8125,-0.8125 0.78125,-0.40625 0.8125,0 0.40625,-0.40625 0.40625,0 1.21875,-0.8125 0,-1.21875 0,-0.40625 0.40625,-0.40625 0.40625,-0.40625 0.40625,-0.375 0.40625,-0.40625 2,0 0.8125,0 0.8125,0 0.40625,0 0.40625,0 1.21875,-0.8125 -0.40625,-0.40625 0,-0.40625 1.625,0 0.78125,0 0.40625,0 1.21875,0 0.40625,0 0.8125,0.8125 0.40625,0 0.8125,-0.40625 0.40625,0 0.40625,0.40625 0.375,0 0.40625,-0.8125 0.8125,0 0.8125,0 0.40625,0.40625 0.40625,-0.40625 0,-0.8125 0.40625,-0.40625 0,0.40625 0.8125,-0.40625 0.40625,0 0,-0.40625 0.40625,0 0.8125,-0.40625 0.375,0 0.40625,0 0,-0.40625 0,-0.40625 0.8125,-0.40625 0.40625,0.40625 0.40625,0 0.40625,0 0.40625,-0.40625 0.40625,-0.40625 0,-0.375 0.40625,0.78125 0,0.40625 0,0.40625 0,2.4375 0,0.40625 0,0.8125 0.40625,0.8125 0.40625,0 0.8125,-0.8125 0.375,0 0.40625,0.40625 0.8125,-0.40625 0.40625,0 0.40625,0.40625 0.40625,0.40625 0.40625,1.1875 0.40625,0.40625 0,1.21875 -0.40625,0.8125 -0.40625,0.40625 -0.40625,0 -0.40625,0 -0.40625,0.40625 -0.40625,-0.40625 0,0.40625 -0.8125,0.8125 -1.1875,0.40625 0,0.375 -0.40625,0.8125 -0.40625,0.40625 0,0.40625 -1.21875,0.8125 -0.40625,1.21875 -0.40625,0.40625 0,0.8125 0,0.40625 0.40625,0.40625 0.40625,0.375 -0.40625,0.40625 0,0.40625 0.8125,0 0.40625,0 0.40625,0 0.40625,0.8125 0,0.40625 -0.40625,2.84375 0.8125,0 1.1875,0.8125 0.40625,-0.40625 0.40625,0 0.40625,0 0,0.40625 0.40625,0 0.40625,-0.40625 0,0.40625 0.40625,-0.40625 0.40625,0 0.40625,0 0.40625,0 0,-0.40625 0.40625,0 0.40625,0 0,-0.40625 0.40625,0 0.8125,0 0.375,-0.40625 0.40625,-0.8125 0.40625,-0.40625 0,-0.40625 0.40625,0 0,-0.40625 0.40625,-0.40625 0.40625,0 0.8125,0 0.40625,0.40625 0.40625,-0.40625 0.40625,0 0.40625,-0.40625 0.40625,0 0.40625,-1.59375 0.375,-1.21875 0,-0.40625 0.8125,0.40625 0.40625,0 0,0.40625 -0.40625,0.8125 0,1.59375 0,1.21875 -0.40625,0.40625 0.40625,0.40625 0.40625,0.40625 0.40625,-0.40625 0,-0.40625 0.40625,0 0.40625,0 0.40625,-0.40625 0,-0.8125 0.8125,0 1.21875,0 0.40625,0 0.375,-0.40625 0.8125,0 0.8125,-0.8125 0.40625,0 0,0.40625 0.40625,0 0.40625,0 1.625,-0.8125 0.40625,0 0.40625,0.40625 0.40625,0.8125 0.375,0 0.40625,0.40625 0.40625,0.40625 1.21875,0 0.40625,0 0.40625,0 0.40625,0.40625 0.8125,-0.40625 0,0.40625 0.40625,-0.40625 0,0.40625 -0.40625,0.40625 -0.40625,0 0,0.40625 0,0.40625 -0.40625,0.40625 0,0.40625 -0.40625,0 0,0.8125 0,0.40625 0.8125,-0.40625 1.21875,0.40625 0.78125,-0.40625 0.40625,0.40625 0,-0.40625 0.40625,0 1.21875,-0.40625 0.8125,-0.40625 -0.40625,-0.40625 0,-0.40625 0,-0.40625 0.40625,0 0.8125,0 0,0.40625 0.8125,0 0.40625,0 0.40625,0 0.40625,0.40625 0,0.40625 0,0.40625 0,0.40625 0.78125,0.78125 0.40625,0 -0.40625,0.40625 0.40625,0.40625 -0.40625,0.40625 0,0.40625 0.40625,-0.40625 0.40625,0 0.40625,-0.40625 0,-0.40625 0.40625,0 0,-0.40625 0.40625,-0.375 0,-0.40625 1.21875,-0.40625 0.40625,0.8125 0.8125,-0.40625 0.40625,0 0.78125,0 0,0.40625 0.40625,-0.40625 0.40625,-0.40625 1.21875,0 0.40625,-0.40625 0.8125,-0.40625 0.8125,0 0.40625,0 0.8125,-0.40625 0.375,-0.40625 0.40625,0 0.40625,0 0.40625,-1.21875 0,-0.40625 0.40625,0 0,-0.40625 0.40625,-0.40625 -0.40625,-0.40625 0.40625,0 -0.40625,-0.78125 0,-0.40625 -0.40625,0 0.40625,-0.40625 -0.40625,0 0.40625,-0.40625 0,-0.40625 0,-0.40625 0,-0.40625 0.40625,-0.8125 0.8125,0.40625 0.40625,0 0,-0.8125 0.8125,0 0.40625,0 0.40625,0.40625 0.40625,0 1.1875,0.8125 0.40625,0.8125 0,0.8125 0.8125,0 0.40625,0 0.40625,0 0,-0.40625 0.40625,0 0,0.40625 1.21875,0 0.40625,0 0.40625,-0.8125 0.375,0 0.40625,-0.40625 -0.40625,-0.8125 0,-0.40625 0.40625,0 0,-0.40625 0.40625,-0.40625 0,-0.40625 0.40625,-0.40625 0.40625,-0.8125 0.40625,0 -0.40625,-0.375 -0.40625,-0.40625 0,-1.21875 -1.21875,0 -0.78125,0 -0.40625,-0.40625 -0.40625,-0.40625 0,-0.40625 0,-0.40625 0.8125,-0.40625 0.40625,0 0.375,0 0,-0.40625 0,-0.40625 0,-0.40625 0.40625,0 0,-0.40625 0.40625,0 0,-0.375 0,-0.40625 0,-0.40625 0.40625,0 0.40625,0 0.40625,0 0.40625,0 0.40625,-0.8125 0,-0.40625 0.40625,-1.625 0,-0.40625 0.40625,0 1.21875,-0.8125 0.40625,0 0.78125,-0.8125 -0.375,-0.375 0.375,-0.40625 0.8125,-0.8125 0.40625,0 0.40625,0 0.8125,0 0.40625,0 0.8125,0.40625 0.8125,0 0.40625,0.8125 0.40625,-0.40625 -0.40625,0 0,-0.8125 -0.40625,-0.40625 0,-0.40625 0.40625,-0.40625 0,-0.40625 0.40625,-0.40625 0,0.40625 0.375,-0.40625 0.40625,0.40625 0,-0.40625 0.40625,0 0,-0.8125 0.40625,-0.8125 0.40625,-0.40625 0.40625,-0.78125 0,-0.40625 0.40625,-0.40625 0,-0.40625 0,-0.40625 -0.40625,-0.40625 0.40625,-0.8125 0,-0.40625 0,-0.8125 -0.40625,-0.40625 -0.40625,0 -0.8125,0 0,-0.40625 0,-0.40625 -0.8125,-0.375 -0.375,0 -0.40625,0 0,-0.40625 -0.40625,0 -0.40625,0 0,-0.40625 -0.8125,-0.40625 -0.40625,-0.40625 0.40625,-0.40625 0.40625,0 0,-0.40625 0.40625,-0.40625 0,-0.40625 0.40625,0 -0.40625,-0.40625 0,-0.40625 0,-0.8125 0.8125,-0.40625 0,-0.78125 -0.40625,-0.40625 0,-0.40625 -0.40625,-0.40625 0,-0.40625 -0.40625,0 -0.40625,0.40625 -0.40625,0 -0.40625,0 -0.8125,-0.8125 -1.21875,-0.40625 -0.40625,-0.40625 -0.375,0 -0.40625,-0.8125 -0.40625,0 -1.625,0 0,0.40625 -0.40625,1.21875 -0.40625,0 -0.8125,-0.40625 -0.40625,0 0,-0.40625 -0.8125,0.40625 -0.40625,0 -0.375,-0.40625 -0.40625,-0.40625 -0.40625,0 -0.40625,0 -0.8125,0 0.40625,-0.40625 0,-0.40625 0.40625,-0.40625 0,-0.8125 -0.40625,0 0.40625,-0.78125 0.40625,-0.8125 0,-0.40625 0.40625,-0.40625 0.78125,-0.40625 0,-0.40625 -0.375,0 -0.40625,-0.8125 0.40625,-0.40625 -0.40625,-0.40625 0.40625,-0.8125 -0.40625,-0.40625 0.40625,-0.375 0.375,0 0.40625,-0.40625 0.40625,0 0,-0.40625 0.40625,0.40625 0.40625,0 -0.40625,-0.40625 -0.40625,-0.40625 0.40625,-0.40625 -0.40625,0 0.40625,-0.40625 -0.40625,0 0,-0.40625 -0.40625,-0.40625 0,-0.40625 -0.78125,-0.8125 0.375,-0.40625 0.40625,-0.8125 0.40625,0 0.8125,-0.78125 0.40625,0 0.40625,0 0.40625,0.375 0.8125,-0.375 0,-0.40625 0,-0.40625 0.40625,-0.40625 -0.40625,-0.40625 0.40625,-0.40625 0.40625,0 0.40625,1.21875 0.40625,0 1.59375,-1.21875 0.40625,-0.40625 0,-0.40625 0.40625,-0.40625 0.40625,0 0.40625,-0.40625 0.40625,-0.40625 0.40625,-0.40625 -0.40625,-0.40625 0.40625,-0.40625 0.40625,-0.40625 0,-0.375 0.8125,-0.40625 -0.40625,0 0.40625,-0.40625 -0.40625,0 -0.40625,-0.40625 0,-0.8125 -0.8125,-1.625 2.03125,-0.40625 0,0.40625 0.78125,0.40625 -0.375,-0.8125 0,-0.8125 -0.40625,-0.40625 -0.40625,-0.78125 -0.40625,-0.40625 0.8125,0 -0.40625,-0.8125 0.40625,-0.8125 0,-1.21875 -1.21875,-1.625 0,-0.40625 -0.40625,-0.375 -0.40625,0 -0.8125,0 -0.8125,0 -0.40625,-0.8125 -0.40625,-0.40625 -0.40625,-0.40625 -0.375,-1.21875 -0.40625,-0.40625 0,0.40625 -0.40625,0 0,0.40625 0,0.40625 0,0.40625 0,0.40625 0,0.40625 0.40625,0.40625 -0.40625,0 0,0.40625 -0.40625,-0.40625 0,-0.40625 -0.40625,0 0,-0.40625 -0.40625,0 0,-0.8125 -0.40625,-0.40625 0,-0.40625 0.40625,0 0.40625,-0.8125 0.40625,0.40625 0.40625,0 0,-0.8125 0,-0.40625 0,-0.40625 0.40625,0 0,-0.40625 0,-0.40625 0.40625,0.40625 0,-0.78125 0.375,0 0,-0.40625 0.40625,-0.40625 0,0.40625 0.40625,0 0.40625,0.78125 0.40625,-0.375 0.40625,-0.40625 0.40625,-0.40625 0.40625,0 0.8125,0 0.40625,-0.8125 0.40625,0 0,-0.40625 0.40625,0 0.40625,-0.40625 0.78125,-0.40625 0,-0.40625 0,-0.40625 0,-0.40625 0.40625,0 -0.40625,-0.40625 0,-0.40625 -0.40625,-0.40625 0,-0.375 -0.375,-0.40625 -0.40625,0 -0.40625,-0.8125 -0.40625,0 0,-0.40625 -0.40625,0 0,0.8125 -0.40625,0.40625 0,0.40625 0,0.375 -0.40625,0 -0.40625,0 -0.40625,0.40625 -0.40625,0 -0.40625,0.40625 -0.40625,0 -0.40625,0.40625 0,0.40625 -0.78125,-0.40625 0,-0.40625 -0.40625,-0.40625 -0.40625,0 -0.40625,-1.1875 0.40625,-0.8125 0.40625,-0.8125 0,-0.40625 0,-0.8125 -0.8125,0.40625 -0.40625,-0.40625 -0.40625,0 -0.40625,-1.21875 -0.40625,0 0,0.40625 0,0.40625 -0.8125,-1.21875 -0.40625,0 -0.40625,-0.40625 0,-0.40625 -0.40625,-0.375 -0.40625,-0.40625 0,-1.21875 0,-0.40625 0,-0.40625 0.40625,-0.40625 0,-0.8125 0,-0.40625 -0.40625,0 -0.40625,0.40625 -0.375,0 -0.40625,-0.40625 -0.40625,0 0,-0.8125 -0.40625,0 0,-0.8125 -0.40625,-0.375 -0.40625,0 0,-0.8125 0,-0.40625 0,-0.40625 0,-0.40625 0.40625,-0.8125 -0.40625,-0.40625 0,-0.40625 -0.40625,0 -0.40625,0.40625 -0.40625,0.40625 -0.40625,-0.40625 -0.40625,-0.40625 0,-0.40625 -0.40625,0 0,-0.40625 0.40625,-0.40625 0,-0.40625 0.40625,0.40625 0,-0.40625 -0.40625,-0.375 0.40625,-0.40625 -0.40625,-0.40625 0.40625,-0.40625 0.40625,0 0.40625,0.40625 0.40625,-0.40625 0.8125,0.40625 0,0.40625 0.40625,-0.40625 0.40625,0 0.40625,0 0,-0.40625 0.40625,0 0,-0.40625 0.375,-0.40625 0,-0.40625 0.40625,-0.8125 0.40625,0 0.40625,-0.40625 0.40625,0 0.40625,-0.40625 0,-0.8125 0.40625,-0.40625 -0.40625,-0.40625 0.40625,-0.78125 0.40625,-0.8125 0.40625,-0.8125 0,-0.40625 -0.40625,0 0,-0.40625 0.40625,0 -0.40625,-0.40625 -0.40625,0 -0.40625,0 0,-0.40625 -0.40625,0 0,0.40625 -0.40625,0 -0.40625,-0.40625 -0.40625,0 0,0.40625 -0.40625,-0.40625 -0.375,0 -0.40625,-0.40625 -0.40625,0.40625 0,0.40625 -0.40625,-0.40625 -1.625,0.40625 0,-0.40625 -0.40625,0 -0.40625,0 0,-0.40625 -0.40625,0 -0.40625,0 -0.40625,0 -0.40625,0 -0.375,-0.40625 -0.8125,-0.40625 0,0.40625 -0.40625,0 0,0.40625 0,0.40625 -0.8125,0.40625 0,-0.40625 0.40625,0 0,-0.40625 -0.40625,0 0,-0.40625 0.8125,-0.40625 -0.40625,0 0.40625,-0.40625 -0.40625,0 -0.8125,-0.375 0,-0.40625 -0.40625,0 -0.40625,-0.40625 -0.40625,0 0,-0.40625 -0.40625,-0.40625 -0.40625,-0.8125 -0.40625,-0.40625 0,-0.40625 -0.40625,0 -0.375,-0.40625 0.375,0 0,-0.40625 -0.375,0 0,-0.40625 -0.40625,0 0,-0.40625 -0.40625,-0.40625 0,-0.40625 0,-0.78125 -0.40625,0 -0.40625,-0.40625 0,0.40625 -0.8125,-0.40625 -0.40625,-0.40625 -0.40625,0 0,-0.40625 -0.40625,0 -0.40625,0 0,-0.40625 -0.40625,0 -0.40625,0 0.40625,-0.40625 -0.40625,0 -0.40625,0 -0.40625,0 -0.375,0 0,-0.40625 -0.40625,0 -0.40625,-0.40625 0.40625,-0.40625 0.40625,0 0,-0.40625 -0.8125,0 -0.40625,-0.40625 -0.40625,0.40625 -0.40625,-0.40625 0,0.40625 -0.40625,0 0,-0.40625 -0.40625,-0.8125 -0.40625,0.8125 -0.40625,-0.40625 -0.40625,0 0,0.40625 0,0.40625 0,0.40625 -0.40625,0 -0.8125,0 -0.375,0 0,0.40625 0,0.40625 0,0.40625 0.375,0 -0.375,0.40625 -0.40625,0 0,0.40625 -0.40625,0 0,0.40625 0,0.40625 -0.40625,0 -0.40625,-0.40625 0,-0.8125 0.40625,-0.40625 0,-0.40625 -0.40625,0 0,-0.40625 0.40625,-0.40625 0,-0.40625 -0.40625,0 -0.40625,0 -0.40625,-0.40625 0.40625,-0.40625 -0.40625,0 0,-0.40625 0,-0.40625 0,-0.375 0,-0.40625 -0.8125,0 0,0.40625 -0.40625,0 -0.40625,0 0,-0.40625 -0.40625,0.40625 0,0.375 0,0.40625 -0.40625,0 -0.40625,0 -0.40625,-0.40625 0.40625,-0.375 0.40625,0 -0.40625,-0.40625 0.40625,0 -0.40625,-0.40625 0.8125,-0.40625 0,-0.40625 0.40625,-0.40625 0.40625,0 -0.8125,-0.8125 -0.40625,0 z M -211.15625,516 l 0.40625,0 -0.40625,-0.40625 0,0.40625 z m -4.0625,-18.1875 0,0.40625 0.40625,0.40625 0,-0.40625 0,-0.40625 -0.40625,0 z m 0.40625,0 0.40625,0 0,-0.40625 -0.40625,0.40625 z m 0,2.40625 0,-0.40625 -0.40625,0 0.40625,0.40625 z m 1.625,-3.625 -0.40625,0 0,0.40625 0.40625,-0.40625 z m -2.84375,-7.28125 -0.375,0 0,0.40625 0.375,-0.40625 z m -6.84375,5.65625 0,0.40625 0.40625,0.40625 -0.40625,-0.8125 z m -11.3125,-36.375 0,-0.78125 0,-0.40625 -0.40625,0.40625 0,0.375 0,0.40625 0.40625,0 z m 4.4375,-7.25 0.40625,-0.40625 -0.40625,0 0,0.40625 z m 36.75,-10.9375 0.40625,-0.375 -0.40625,0 -0.375,0.375 0.375,0 z m 13.34375,-7.65625 -0.40625,0 0.40625,0.40625 0,-0.40625 z m 7.6875,-12.125 0.40625,-0.40625 -0.40625,0 0,0.40625 z m -44.4375,71.53125 0,0.40625 0,0.40625 0.375,0.40625 0,-0.40625 0.40625,0 0,-0.40625 0,-0.40625 -0.40625,0 -0.375,0 z m 0.78125,0.8125 0,0.40625 -0.40625,0 0,0.375 0.40625,0.40625 0.40625,0 0.40625,0 0,-0.40625 -0.40625,0 0,-0.375 0.40625,0 -0.40625,-0.40625 0.40625,0 0,-0.40625 -0.40625,0 -0.40625,0.40625 z m 0,1.1875 -0.40625,0 0,0.40625 0.40625,0.40625 0,-0.40625 0,-0.40625 z m 0,0.8125 -0.40625,0 0,0.40625 0.40625,0 0,-0.40625 z m -0.40625,0 0,-0.40625 -0.375,0 0,0.40625 0.375,0 z m 2.84375,-2 0,0.40625 0,0.375 -0.40625,0 0.40625,-0.375 -0.21875,-0.1875 0.21875,-0.21875 z m -10.09375,4.4375 0,0.40625 -0.40625,0.40625 0.40625,0.40625 0,0.40625 0.40625,0 0,-0.40625 0,-0.40625 0,-0.40625 -0.40625,-0.40625 z m 0.40625,1.21875 0.40625,0.40625 0,-0.40625 -0.40625,0 z m 17.375,4.03125 0.40625,0 -0.40625,0.40625 0,-0.40625 z m -14.15625,1.21875 0,0.40625 0,0.40625 -0.40625,0 -0.40625,0.40625 0.40625,0.375 0,0.40625 -0.40625,0 0,0.40625 0,0.40625 0.40625,0 0.40625,-1.21875 0.40625,-1.1875 -0.40625,-0.40625 z m 0.40625,0.40625 0.40625,-0.40625 -0.40625,0 0,0.40625 z m -0.8125,2.8125 0,0.40625 0.40625,0 0,-0.40625 -0.40625,0 z m 0.40625,6.875 0.40625,0.40625 0.40625,0.40625 0,-0.40625 -0.40625,-0.40625 -0.40625,0 z m 0.8125,0.8125 -0.40625,0.40625 0.40625,0.40625 0.40625,0 -0.40625,-0.40625 0.40625,-0.40625 -0.40625,0 z m 0,0.8125 -0.40625,0 0,0.40625 -0.40625,0 0,0.40625 0.40625,0 0.40625,0 0,-0.40625 0,-0.40625 z m -0.40625,1.59375 0,0.40625 -0.40625,0 0.40625,0.40625 0.40625,0 0,-0.40625 0.40625,0.40625 0,-0.40625 -0.40625,-0.40625 -0.40625,0 z"
         id="rect733"
         style="font-size:12px;fill:#ffffff;fill-opacity:1;fill-rule:evenodd;stroke:#0099cc;stroke-width:0.44999999;stroke-linejoin:miter;stroke-miterlimit:4;stroke-dasharray:none;stroke-opacity:1"
         transform="matrix(3.1788073,0,0,2.9541965,819.83531,-1141.2961)"
         inkscape:connector-curvature="0" />
      <path
         d="m -210.375,439.65625 0,0.40625 -0.375,0 0,0.78125 0,0.40625 0,0.40625 -0.40625,-0.40625 -0.40625,0.40625 0,-0.40625 -0.40625,0 0,0.40625 -0.40625,0 -0.40625,-0.40625 -0.40625,0 -0.40625,0 -0.40625,0 0,0.40625 0,0.40625 0,0.40625 0,0.40625 -0.40625,0 -0.40625,0 -0.40625,0.40625 0.40625,0.40625 -0.40625,0 -0.40625,-0.40625 -0.40625,-0.40625 -0.375,0 -0.40625,0.40625 -0.40625,0 -0.8125,0.40625 0,0.40625 0.40625,0.40625 0,0.40625 0.40625,0 0.40625,0 0.40625,0 0,0.40625 0,0.40625 0,0.78125 0.375,-0.40625 0,0.40625 0.40625,0.40625 -0.40625,0.40625 -0.375,0 -0.40625,0 -0.40625,0 -0.40625,0 -0.40625,0 0,0.40625 -0.40625,0 0,0.40625 -0.40625,-0.40625 -0.40625,0 0.40625,-0.40625 -0.40625,-0.40625 -0.40625,-0.40625 0,0.40625 0.40625,0.40625 -0.40625,0 -0.40625,0.40625 0,0.40625 -0.40625,0 0,-0.40625 -0.40625,0.40625 0,0.40625 0,0.8125 -1.21875,0.40625 -0.375,0 -0.40625,0 0,0.40625 -0.40625,0 0,-0.40625 -0.40625,0 0,-0.40625 -0.40625,0 -0.40625,0.40625 -0.40625,-0.40625 0,-0.40625 -0.40625,0 -0.40625,-0.40625 0,0.40625 -0.40625,0 -0.40625,0 0,0.40625 -0.40625,0.40625 -0.40625,0 0,-0.40625 -0.40625,0 -0.375,0.40625 0,0.8125 -0.40625,0 0,0.40625 -0.40625,0 0,0.40625 -0.40625,0 -0.40625,0 0,0.40625 0.40625,0.375 0,0.8125 -0.40625,0 0.40625,0.40625 0.40625,0.40625 0,-0.40625 0.40625,0 0,-0.40625 0.40625,0 0,-0.40625 0.375,0 0,-0.40625 0.40625,-0.375 0,0.375 -0.40625,0.8125 0,0.40625 0.40625,0 0,0.40625 -0.40625,0.8125 0,0.40625 -0.375,0 -0.40625,0 0,0.8125 -0.40625,0 -0.40625,0 0,-0.40625 0,-0.40625 -0.40625,0 -0.40625,0 0,-0.40625 -0.40625,-0.40625 0,0.40625 0,0.40625 0,0.40625 0,0.40625 -0.40625,0 -0.40625,-0.40625 -0.40625,0.40625 0,-0.40625 -0.40625,0 0,0.40625 0,0.40625 0,0.3125 110.46875,79 0.25,-0.53125 0.40625,0 -0.40625,-0.375 -0.40625,-0.40625 0,-1.21875 -1.21875,0 -0.78125,0 -0.40625,-0.40625 -0.40625,-0.40625 0,-0.40625 0,-0.40625 0.8125,-0.40625 0.40625,0 0.375,0 0,-0.40625 0,-0.40625 0,-0.40625 0.40625,0 0,-0.40625 0.40625,0 0,-0.375 0,-0.40625 0,-0.40625 0.40625,0 0.40625,0 0.40625,0 0.40625,0 0.40625,-0.8125 0,-0.40625 0.40625,-1.625 0,-0.40625 0.40625,0 1.21875,-0.8125 0.40625,0 0.78125,-0.8125 -0.375,-0.375 0.375,-0.40625 0.8125,-0.8125 0.40625,0 0.40625,0 0.8125,0 0.40625,0 0.8125,0.40625 0.8125,0 0.40625,0.8125 0.40625,-0.40625 -0.40625,0 0,-0.8125 -0.40625,-0.40625 0,-0.40625 0.40625,-0.40625 0,-0.40625 0.40625,-0.40625 0,0.40625 0.375,-0.40625 0.40625,0.40625 0,-0.40625 0.40625,0 0,-0.8125 0.40625,-0.8125 0.40625,-0.40625 0.40625,-0.78125 0,-0.40625 0.40625,-0.40625 0,-0.40625 0,-0.40625 -0.40625,-0.40625 0.40625,-0.8125 0,-0.40625 0,-0.8125 -0.40625,-0.40625 -0.40625,0 -0.8125,0 0,-0.40625 0,-0.40625 -0.8125,-0.375 -0.375,0 -0.40625,0 0,-0.40625 -0.40625,0 -0.40625,0 0,-0.40625 -0.8125,-0.40625 -0.40625,-0.40625 0.40625,-0.40625 0.40625,0 0,-0.40625 0.40625,-0.40625 0,-0.40625 0.40625,0 -0.40625,-0.40625 0,-0.40625 0,-0.8125 0.8125,-0.40625 0,-0.78125 -0.40625,-0.40625 0,-0.40625 -0.40625,-0.40625 0,-0.40625 -0.40625,0 -0.40625,0.40625 -0.40625,0 -0.40625,0 -0.8125,-0.8125 -1.21875,-0.40625 -0.40625,-0.40625 -0.375,0 -0.40625,-0.8125 -0.40625,0 -1.625,0 0,0.40625 -0.40625,1.21875 -0.40625,0 -0.8125,-0.40625 -0.40625,0 0,-0.40625 -0.8125,0.40625 -0.40625,0 -0.375,-0.40625 -0.40625,-0.40625 -0.40625,0 -0.40625,0 -0.8125,0 0.40625,-0.40625 0,-0.40625 0.40625,-0.40625 0,-0.8125 -0.40625,0 0.40625,-0.78125 0.40625,-0.8125 0,-0.40625 0.40625,-0.40625 0.78125,-0.40625 0,-0.40625 -0.375,0 -0.40625,-0.8125 0.25,-0.25 -74.1875,-53.09375 -0.0312,0 -0.40625,0 0,-0.3125 -0.0625,-0.0312 -0.34375,0.34375 -0.375,-0.40625 0,0.40625 -0.40625,0 -0.40625,0 -0.8125,0.40625 -0.8125,0.40625 -0.8125,0 -1.21875,0.8125 -0.8125,0 -0.40625,-0.40625 0,-0.40625 -0.375,0.40625 -0.8125,0 -0.40625,-0.40625 -0.40625,-0.40625 -0.40625,0 -0.40625,0 -0.40625,0 0,-0.40625 -0.40625,-0.40625 -0.40625,0 0,-0.40625 -0.40625,-0.40625 -0.40625,-0.40625 -0.40625,0 0,-0.78125 0,-0.40625 -0.40625,0 z m -19.375,11.71875 0.40625,-0.40625 -0.40625,0 0,0.40625 z"
         transform="matrix(3.1788073,0,0,2.9541965,819.83531,-1141.2961)"
         id="path556"
         style="font-size:12px;fill:#0099cc;fill-opacity:1"
         inkscape:connector-curvature="0" />
    </g>
    <g
       transform="matrix(0.3145834,0,0,0.33850152,-22.275327,-26.788288)"
       id="g4979">
      <path
         d="m 266.29435,279.95507 -8.13076,0 0,-8.13255 -7.20841,0 0,8.13255 -8.13076,0 0,7.20543 8.13076,0 0,8.13015 7.20841,0 0,-8.13015 8.13076,0 0,-7.20543"
         id="path569"
         style="font-size:12px;fill:none;stroke:none"
         inkscape:connector-curvature="0" />
      <path
         d="m 350.79906,279.95507 -8.13076,0 0,-8.13255 -7.2108,0 0,8.13255 -8.12836,0 0,7.20543 8.12836,0 0,8.13015 7.2108,0 0,-8.13015 8.13076,0 0,-7.20543"
         id="path571"
         style="font-size:12px;fill:none;stroke:none"
         inkscape:connector-curvature="0" />
      <path
         d="m 307.97624,269.73775 -8.13077,0 0,-8.13014 -7.20839,0 0,8.13014 -8.13077,0 0,7.20785 8.13077,0 0,8.13013 7.20839,0 0,-8.13013 8.13077,0 0,-7.20785"
         id="path573"
         style="font-size:12px;fill:none;stroke:none"
         inkscape:connector-curvature="0" />
      <path
         d="m 266.29435,315.15605 -8.13076,0 0,-8.13014 -7.20841,0 0,8.13014 -8.13076,0 0,7.20784 8.13076,0 0,8.13014 7.20841,0 0,-8.13014 8.13076,0 0,-7.20784"
         id="path575"
         style="font-size:12px;fill:none;stroke:none"
         inkscape:connector-curvature="0" />
      <path
         d="m 350.79906,315.15605 -8.13076,0 0,-8.13014 -7.2108,0 0,8.13014 -8.12836,0 0,7.20784 8.12836,0 0,8.13014 7.2108,0 0,-8.13014 8.13076,0 0,-7.20784"
         id="path577"
         style="font-size:12px;fill:none;stroke:none"
         inkscape:connector-curvature="0" />
      <path
         d="m 266.29435,350.70529 -8.13076,0 0,-8.13254 -7.20841,0 0,8.13254 -8.13076,0 0,7.20785 8.13076,0 0,8.12773 7.20841,0 0,-8.12773 8.13076,0 0,-7.20785"
         id="path578"
         style="font-size:12px;fill:#ffffff;fill-opacity:1"
         inkscape:connector-curvature="0" />
      <path
         d="m 266.29435,350.70529 -8.13076,0 0,-8.13254 -7.20841,0 0,8.13254 -8.13076,0 0,7.20785 8.13076,0 0,8.12773 7.20841,0 0,-8.12773 8.13076,0 0,-7.20785"
         id="path579"
         style="font-size:12px;fill:none;stroke:none"
         inkscape:connector-curvature="0" />
      <path
         d="m 269.25121,191.55631 c 1.47243,0 2.66622,-1.1961 2.66622,-2.66842 0,-1.47231 -1.19379,-2.66601 -2.66622,-2.66601 -1.47483,0 -2.66862,1.1937 -2.66862,2.66601 0,1.47232 1.19379,2.66842 2.66862,2.66842"
         id="path610"
         style="font-size:12px;fill:#ffffff"
         inkscape:connector-curvature="0" />
      <path
         d="m 296.19203,211.16712 c 1.47243,0 2.66862,-1.19371 2.66862,-2.66601 0,-1.47232 -1.19619,-2.66602 -2.66862,-2.66602 -1.47243,0 -2.66622,1.1937 -2.66622,2.66602 0,1.4723 1.19379,2.66601 2.66622,2.66601"
         id="path618"
         style="font-size:12px;fill:#ffffff"
         inkscape:connector-curvature="0" />
      <path
         d="m 351.32751,221.54055 c 1.47242,0 2.66621,-1.19369 2.66621,-2.66841 0,-1.47232 -1.19379,-2.66602 -2.66621,-2.66602 -1.47483,0 -2.66862,1.1937 -2.66862,2.66602 0,1.47472 1.19379,2.66841 2.66862,2.66841"
         id="path620"
         style="font-size:12px;fill:#ffffff"
         inkscape:connector-curvature="0" />
      <path
         d="m 352.70866,214.90674 c 1.47482,0 2.66862,-1.1937 2.66862,-2.66601 0,-1.47231 -1.1938,-2.66602 -2.66862,-2.66602 -1.47243,0 -2.66622,1.19371 -2.66622,2.66602 0,1.47231 1.19379,2.66601 2.66622,2.66601"
         id="path622"
         style="font-size:12px;fill:#ffffff"
         inkscape:connector-curvature="0" />
      <path
         d="m 296.07193,226.83415 c 1.679,0 3.03853,-1.35943 3.03853,-3.0383 0,-1.67646 -1.35953,-3.03589 -3.03853,-3.03589 -1.67659,0 -3.03612,1.35943 -3.03612,3.03589 0,1.67887 1.35953,3.0383 3.03612,3.0383"
         id="path707"
         style="font-size:12px;fill:#ffffff"
         inkscape:connector-curvature="0" />
      <path
         d="m 318.08385,228.60188 c -1.63816,-0.35306 -2.68063,-1.96948 -2.32754,-3.60992 0.35309,-1.63803 1.96963,-2.68282 3.6102,-2.32736 1.64057,0.35307 2.68304,1.96949 2.32994,3.60992 -0.35549,1.63805 -1.97204,2.68284 -3.6126,2.32736"
         id="path713"
         style="font-size:12px;fill:#ffffff"
         inkscape:connector-curvature="0" />
      <path
         d="m 337.70097,230.11743 c 0.32186,-1.64524 1.91679,-2.72125 3.56216,-2.39941 0.46839,0.0889 0.88634,0.28581 1.24183,0.55482 -0.0913,0.56923 -0.34588,1.33541 -0.8455,1.82778 -0.6029,0.59324 -0.66295,1.59961 -0.61731,1.91425 0.0336,0.24978 -0.0553,1.14806 -0.46839,1.71729 -0.15613,-0.007 -0.31466,-0.0216 -0.4708,-0.0528 -1.64296,-0.31944 -2.71905,-1.91424 -2.40199,-3.56189"
         id="path725"
         style="font-size:12px;fill:#ffffff"
         inkscape:connector-curvature="0" />
    </g>
  </g>
  <path
     inkscape:connector-curvature="0"
     style="fill:#29334b;fill-opacity:1;fill-rule:evenodd;stroke:none;stroke-width:1;stroke-miterlimit:4;stroke-dasharray:none;stroke-dashoffset:0;stroke-opacity:1"
     d="m 419.4869,211.24999 c 2.97781,-2.92699 0.85737,-4.93769 2.45716,-7.76672 2.68797,-4.7537 9.09972,-6.2711 13.42755,-4.95988 4.88703,1.48061 8.86126,9.23445 9.16481,14.3666 0.14551,2.44382 -0.0217,7.1348 -1.42579,9.62865 -1.97156,3.50293 -7.99841,2.47447 -8.07459,8.52063 -1.31957,0.73288 -2.44963,-1.18324 -2.82054,0.13825 -1.30883,2.88366 3.48761,6.51643 3.81275,10.80578 18.79005,2.35559 17.27625,-7.9868 34.78493,-8.31724 -0.47547,3.5137 9.77484,4.14372 10.36074,6.50245 -2.10553,1.57915 1.34733,-0.50166 0.76351,2.82949 -1.43922,1.46061 -12.89088,-1.24931 -12.84605,0.71016 -16.26023,-1.89547 -20.92406,12.34299 -37.64297,10.92619 -4.83618,-7.318 -10.3347,-13.89777 -13.35738,-23.24218 -6.66824,3.88969 -11.1479,9.79479 -21.16864,10.59636 -1.48311,0.76147 -11.81544,3.07483 -17.21044,4.66673 2.5804,7.76043 11.24476,10.0658 16.30701,15.92808 1.96091,2.27166 4.32945,6.10305 6.09536,9.26088 3.61956,6.4724 7.89121,11.19536 7.64819,22.08813 -8.91209,10.32119 -30.14351,12.45405 -44.42178,16.99316 -2.14384,0.68204 -4.73372,3.7743 -6.33082,5.56736 0.34351,5.6007 -1.82174,9.51746 -0.3036,13.39768 1.07341,2.74452 5.61439,3.81005 4.61604,7.89861 -14.28955,1.72909 -13.37433,-17.85908 -22.3333,-23.75757 -0.3511,-1.07678 -1.06955,-2.83058 -0.18169,-3.81424 -12.83184,11.2826 -35.97562,13.07 -43.85391,28.91424 0.93731,6.18164 -2.18244,8.6281 -2.16188,13.96554 1.45754,1.71936 3.92235,2.31417 4.0327,5.53795 -5.47701,1.48052 -11.55148,-4.43502 -12.76683,-10.84457 -0.33088,-1.74417 0.55344,-3.45041 0.22084,-5.26787 -0.83042,-4.53024 -5.83879,-8.0766 -4.86675,-13.14335 0.75165,-3.91724 6.20711,-5.07289 9.71287,-3.82156 7.36997,-3.70852 14.84601,-8.65218 21.00965,-13.93404 5.19615,-4.45175 7.9637,-12.10757 16.77884,-13.72666 1.22034,-0.22441 2.62129,0.28836 3.76013,-0.18431 7.33201,-3.04292 6.31951,-17.48618 9.11511,-26.25615 1.81277,-5.6885 4.26836,-10.24833 6.83977,-14.67251 -0.48622,-9.50361 -2.97861,-17.67537 1.25963,-23.0024 5.32565,-6.69437 34.96518,-21.75002 37.90205,-25.27703 -2.33573,-4.25341 -7.3959,-5.46254 -11.22031,-8.05344 -7.0728,2.04267 -13.98957,0.49249 -20.18991,1.46818 -7.35308,1.15653 -12.77611,6.14 -18.43896,8.55099 -3.14571,-1.0051 -8.07055,-0.0213 -10.90229,-1.37719 -1.51882,-1.93195 -5.75181,-4.30693 -6.28188,-6.62278 -0.48896,-2.13807 7.8406,-1.73323 6.47469,-2.54737 2.34104,-0.0781 8.43434,1.56792 11.97629,-2.419 19.38225,-0.85521 28.40135,-14.20599 43.86744,-8.84114 6.14555,2.13185 12.40178,9.66023 18.0962,13.92882 1.67902,1.25947 3.87268,3.36317 5.37482,4.03825 4.75877,2.15689 10.7151,-0.16472 12.9459,4.64398 z m -70.02277,92.80116 c 18.1401,0.42937 24.99135,-13.44668 39.67573,-17.71677 -6.82306,-5.2661 -18.26438,-5.37082 -22.77409,-13.22185 -0.60213,0.004 -0.68015,-0.5794 -1.43302,-0.40832 -1.54459,13.48445 -11.32513,21.79083 -15.47285,31.35073 z"
     id="path3361" />
  <flowRoot
     xml:space="preserve"
     id="flowRoot4184"
     style="font-style:normal;font-weight:normal;font-size:40px;line-height:125%;font-family:sans-serif;letter-spacing:0px;word-spacing:0px;fill:#000000;fill-opacity:1;stroke:url(#linearGradient4198);stroke-width:0.5;stroke-linecap:butt;stroke-linejoin:miter;stroke-miterlimit:4;stroke-dasharray:none;stroke-opacity:1"
     transform="translate(-2.0740741,-12.703704)"><flowRegion
       id="flowRegion4186"
       style="stroke:url(#linearGradient4202)"><rect
         id="rect4188"
         width="759.74078"
         height="129.51852"
         x="607"
         y="225"
         style="stroke:url(#linearGradient4200);stroke-width:0.5;stroke-miterlimit:4;stroke-dasharray:none" /></flowRegion><flowPara
       id="flowPara4190"
       style="font-style:normal;font-variant:normal;font-weight:normal;font-stretch:normal;font-size:100px;line-height:125.99999905%;font-family:Papyrus;-inkscape-font-specification:'Papyrus, Normal';text-align:start;letter-spacing:0.09px;word-spacing:0.05px;writing-mode:lr-tb;text-anchor:start;fill:#e0e0d0;fill-opacity:1;stroke:#fefefe;stroke-width:0.5;stroke-miterlimit:4;stroke-dasharray:none;stroke-opacity:0.96100278">RunMap Galicia</flowPara></flowRoot></svg>
